<svg viewBox="0 0 8542 7492" xmlns="http://www.w3.org/2000/svg">
    <!-- Background anchor for add_svg_background_image -->
    <rect id="background" x="0" y="0" width="8542" height="7492" fill="transparent" pointer-events="none" />

    <path id="bad_logs_in_fireplace" fill="transparent" d="M3582.0,6479.0 L3592.0,6479.0 L3616.0,6486.0 L3718.0,6526.0 L3750.0,6531.0 L3781.0,6516.0 L3791.0,6518.0 L3802.0,6531.0 L3815.0,6560.0 L3824.0,6569.0 L3839.0,6554.0 L3841.0,6527.0 L3849.0,6510.0 L3857.0,6518.0 L3862.0,6554.0 L3878.0,6564.0 L3959.0,6566.0 L3989.0,6563.0 L4052.0,6572.0 L4079.0,6581.0 L4088.0,6586.0 L4093.0,6594.0 L4096.0,6678.0 L4094.0,6699.0 L4083.0,6712.0 L4040.0,6732.0 L4016.0,6753.0 L3992.0,6746.0 L3966.0,6751.0 L3947.0,6751.0 L3918.0,6742.0 L3893.0,6745.0 L3853.0,6742.0 L3819.0,6753.0 L3791.0,6757.0 L3754.0,6748.0 L3735.0,6748.0 L3683.0,6754.0 L3653.0,6762.0 L3517.0,6763.0 L3423.0,6750.0 L3414.0,6743.0 L3405.0,6728.0 L3400.0,6697.0 L3400.0,6662.0 L3418.0,6613.0 L3426.0,6604.0 L3449.0,6603.0 L3457.0,6607.0 L3472.0,6626.0 L3478.0,6653.0 L3483.0,6662.0 L3491.0,6665.0 L3515.0,6655.0 L3519.0,6585.0 L3533.0,6529.0 L3552.0,6496.0 L3563.0,6486.0 L3582.0,6479.0 Z" />
    <path id="bad_fireplace" fill="transparent" d="M2523.7,5499.2 L2521.3,5583.0 L2631.4,5585.4 L2631.4,6854.2 L3395.0,6844.6 L3397.4,6430.5 L4132.4,6437.6 L4132.4,6837.4 L4711.7,6842.2 L4711.7,5578.2 L4771.6,5578.2 L4771.6,5501.6 Z" />
    <path id="bad_log_stack" fill="transparent" d="M2177.0,6613.0 L2340.0,6616.0 L2461.0,6614.0 L2484.0,6617.0 L2508.0,6629.0 L2526.0,6647.0 L2532.0,6662.0 L2539.0,6703.0 L2550.0,6719.0 L2584.0,6726.0 L2611.0,6724.0 L2656.0,6714.0 L2667.0,6720.0 L2654.0,6786.0 L2652.0,6839.0 L2631.0,6887.0 L2623.0,6958.0 L2609.0,6993.0 L2617.0,7039.0 L2640.0,7119.0 L2639.0,7133.0 L2625.0,7155.0 L2615.0,7155.0 L2605.0,7137.0 L2600.0,7122.0 L2599.0,7099.0 L2595.0,7086.0 L2547.0,7043.0 L2526.0,7036.0 L2517.0,7036.0 L2456.0,7059.0 L2418.0,7062.0 L2398.0,7071.0 L2383.0,7093.0 L2396.0,7125.0 L2396.0,7129.0 L2390.0,7135.0 L2381.0,7132.0 L2379.0,7127.0 L2380.0,7094.0 L2377.0,7087.0 L2343.0,7059.0 L2317.0,7050.0 L2248.0,7049.0 L2236.0,7060.0 L2233.0,7068.0 L2231.0,7088.0 L2234.0,7127.0 L2230.0,7145.0 L2222.0,7159.0 L2212.0,7160.0 L2197.0,7154.0 L2190.0,7147.0 L2183.0,7129.0 L2184.0,7119.0 L2205.0,7060.0 L2205.0,7052.0 L2194.0,7026.0 L2177.0,7022.0 L2116.0,7029.0 L2082.0,7015.0 L2059.0,7011.0 L2046.0,7012.0 L2035.0,7024.0 L2023.0,7053.0 L2003.0,7066.0 L1993.0,7077.0 L1986.0,7093.0 L1991.0,7116.0 L1989.0,7140.0 L1981.0,7153.0 L1976.0,7148.0 L1966.0,7127.0 L1978.0,7102.0 L1980.0,7087.0 L1967.0,7061.0 L1969.0,7054.0 L1997.0,7026.0 L2004.0,6995.0 L1993.0,6986.0 L1955.0,6981.0 L1934.0,6972.0 L1918.0,6960.0 L1907.0,6942.0 L1901.0,6920.0 L1904.0,6886.0 L1920.0,6848.0 L1939.0,6828.0 L1941.0,6819.0 L1922.0,6783.0 L1908.0,6737.0 L1890.0,6701.0 L1881.0,6697.0 L1854.0,6699.0 L1847.0,6695.0 L1843.0,6672.0 L1846.0,6653.0 L1881.0,6635.0 L1891.0,6635.0 L1908.0,6649.0 L1932.0,6699.0 L1943.0,6712.0 L1955.0,6717.0 L1984.0,6716.0 L2013.0,6724.0 L2023.0,6724.0 L2063.0,6714.0 L2080.0,6700.0 L2086.0,6689.0 L2087.0,6661.0 L2094.0,6652.0 L2121.0,6633.0 L2148.0,6619.0 L2177.0,6613.0 Z" />
    <path id="bad_car" fill="transparent" d="M6736.8,5324.3 L6718.5,5333.1 L6695.4,5352.8 L6678.4,5375.3 L6658.0,5400.4 L6644.4,5427.0 L6624.7,5460.9 L6611.1,5486.1 L6596.1,5514.7 L6583.2,5541.2 L6574.3,5564.3 L6550.6,5563.6 L6548.5,5530.3 L6538.3,5503.1 L6528.1,5501.1 L6508.4,5499.7 L6483.2,5501.7 L6456.7,5507.2 L6437.0,5514.0 L6412.5,5523.5 L6400.3,5533.7 L6389.4,5549.3 L6389.4,5560.2 L6395.5,5577.9 L6409.1,5592.2 L6517.2,5610.5 L6556.0,5615.3 L6533.6,5638.4 L6512.5,5664.2 L6490.7,5692.1 L6484.6,5705.0 L6477.8,5714.5 L6463.5,5730.2 L6455.7,5740.4 L6448.5,5752.9 L6443.1,5766.9 L6440.6,5780.8 L6438.7,5801.7 L6425.5,5988.6 L6430.5,6140.5 L6433.5,6159.3 L6432.9,6236.5 L6432.7,6317.6 L6435.1,6326.7 L6444.7,6341.2 L6453.6,6349.2 L6460.5,6351.9 L6472.0,6354.3 L6581.8,6354.6 L6594.2,6349.7 L6605.9,6340.9 L6613.2,6329.1 L6617.2,6314.9 L6617.5,6233.0 L6736.6,6233.0 L7669.3,6239.1 L7669.3,6324.5 L7673.3,6334.4 L7684.4,6349.9 L7696.1,6356.4 L7705.5,6359.6 L7816.3,6360.3 L7829.2,6358.8 L7843.3,6347.8 L7849.6,6335.7 L7853.9,6325.1 L7855.5,6162.7 L7860.3,6119.6 L7863.8,6059.4 L7864.2,5988.3 L7852.2,5777.5 L7839.6,5751.6 L7829.5,5736.6 L7820.4,5726.2 L7805.2,5704.5 L7780.3,5666.8 L7751.1,5634.7 L7739.2,5621.4 L7883.5,5599.1 L7899.6,5580.3 L7905.2,5562.9 L7897.5,5542.0 L7873.8,5528.0 L7831.9,5512.7 L7794.5,5506.1 L7758.4,5506.1 L7753.7,5512.4 L7749.8,5532.0 L7745.9,5552.4 L7744.3,5571.9 L7722.0,5570.4 L7676.1,5470.5 L7625.8,5387.6 L7587.9,5345.9 L7563.2,5329.8 L7535.7,5321.7 L7268.2,5303.2 Z" />
    <path id="bad_rubbish" fill="transparent" d="M943.0,5273.0 L957.0,5273.0 L995.0,5281.0 L1086.0,5284.0 L1115.0,5295.0 L1141.0,5320.0 L1166.0,5358.0 L1161.0,5418.0 L1162.0,5461.0 L1155.0,5484.0 L1155.0,5494.0 L1167.0,5506.0 L1190.0,5513.0 L1244.0,5517.0 L1347.0,5512.0 L1355.0,5521.0 L1360.0,5555.0 L1358.0,5793.0 L1355.0,5834.0 L1359.0,5879.0 L1361.0,6034.0 L1361.0,6094.0 L1356.0,6133.0 L1356.0,6163.0 L1363.0,6226.0 L1358.0,6329.0 L1361.0,6346.0 L1361.0,6390.0 L1367.0,6438.0 L1365.0,6462.0 L1356.0,6487.0 L1347.0,6499.0 L1323.0,6496.0 L1285.0,6497.0 L1256.0,6503.0 L1223.0,6504.0 L1183.0,6510.0 L1082.0,6491.0 L944.0,6492.0 L927.0,6495.0 L812.0,6491.0 L793.0,6495.0 L771.0,6495.0 L718.0,6492.0 L680.0,6486.0 L627.0,6487.0 L555.0,6480.0 L519.0,6481.0 L486.0,6462.0 L476.0,6450.0 L471.0,6430.0 L471.0,6415.0 L478.0,6373.0 L484.0,6361.0 L480.0,6358.0 L464.0,6363.0 L422.0,6366.0 L381.0,6376.0 L337.0,6372.0 L326.0,6364.0 L345.0,6317.0 L363.0,6293.0 L362.0,6260.0 L353.0,6222.0 L356.0,6194.0 L388.0,6107.0 L399.0,6085.0 L423.0,6051.0 L450.0,5993.0 L519.0,5947.0 L537.0,5930.0 L554.0,5903.0 L613.0,5782.0 L621.0,5773.0 L653.0,5755.0 L689.0,5760.0 L722.0,5774.0 L778.0,5787.0 L787.0,5781.0 L791.0,5759.0 L768.0,5729.0 L761.0,5686.0 L765.0,5659.0 L775.0,5629.0 L797.0,5602.0 L814.0,5555.0 L845.0,5523.0 L854.0,5495.0 L841.0,5460.0 L838.0,5431.0 L838.0,5390.0 L844.0,5362.0 L871.0,5319.0 L883.0,5307.0 L913.0,5281.0 L943.0,5273.0 Z" />
    <path id="bad_chimney" fill="transparent" d="M3206.6,2197.6 L3988.7,2200.2 L3986.1,2292.4 L3959.7,2292.4 L3962.4,3993.5 L3256.6,3990.9 L3254.0,2297.7 L3206.6,2297.7 Z" />
</svg>