<svg viewBox="0 0 8542 7459" xmlns="http://www.w3.org/2000/svg">
    <!-- Background anchor for add_svg_background_image -->
    <rect id="background" x="0" y="0" width="8542" height="7459" fill="transparent" pointer-events="none" />

    <path id="good_chimney" fill="transparent" d="M4121.9,2172.3 L4466.0,2172.3 L4466.0,2270.6 L4434.0,2270.6 L4429.1,3998.1 L4163.7,3998.1 L4158.8,2270.6 L4112.1,2270.6 Z" />
    <path id="good_wood_in_fireplace" fill="transparent" d="M4105.3,6446.3 L4111.8,6453.8 L4125.8,6453.8 L4231.8,6393.4 L4157.8,6481.3 L4468.1,6484.4 L4437.0,6462.5 L4441.0,6455.5 L4469.4,6473.0 L4482.1,6473.9 L4485.6,6463.4 L4337.7,6350.9 L4355.6,6332.1 L4321.0,6314.6 L4304.4,6329.5 L4291.3,6327.3 L4258.0,6361.4 L4258.9,6340.8 L4246.6,6338.2 L4243.6,6371.0 Z" />
    <path id="good_fireplace" fill="transparent" d="M3874.0,5928.7 L3757.5,6006.8 L3758.7,6047.8 L3821.5,6050.4 L3817.7,6727.9 L3794.6,6752.2 L3781.8,6779.1 L3785.6,6803.5 L3824.1,6818.8 L3858.6,6822.7 L3995.7,6825.2 L4007.2,6214.3 L4049.5,6178.4 L4114.8,6157.9 L4199.3,6140.0 L4254.4,6136.2 L4322.3,6136.2 L4376.1,6136.2 L4409.4,6140.0 L4445.2,6149.0 L4486.2,6160.5 L4536.2,6178.4 L4566.9,6196.4 L4587.4,6220.7 L4588.7,6493.5 L4003.4,6492.2 L4000.8,6826.5 L4778.2,6818.8 L4807.7,6812.4 L4820.5,6790.7 L4819.2,6765.0 L4796.2,6733.0 L4773.1,6715.1 L4773.1,6049.1 L4830.8,6046.5 L4830.8,6005.5 L4718.1,5926.1 Z" />
    <path id="good_bus" fill="transparent" d="M2077.3,3392.2 L2085.0,3470.7 L2090.1,3478.5 L1954.9,3517.1 L1956.2,3553.2 L1736.0,3599.5 L1730.8,3629.1 L1505.4,3692.3 L1511.9,3727.0 L1339.3,3772.1 L1331.6,3796.6 L1195.1,3835.2 L1196.3,3881.6 L656.7,3880.3 L652.3,3892.3 L643.3,3907.1 L631.8,3919.7 L620.0,3928.4 L600.4,3937.7 L578.8,3940.7 L558.9,3938.5 L544.4,3933.2 L531.2,3926.7 L520.8,3918.3 L512.1,3906.8 L502.6,3892.0 L499.5,3881.9 L125.1,3879.8 L106.8,3871.6 L95.6,3855.4 L92.6,3839.1 L91.6,3677.7 L103.8,3530.5 L120.0,3438.1 L138.5,3425.9 L147.0,3423.6 L846.1,3429.9 L845.1,3397.9 L854.6,3388.6 L1221.4,3386.3 L1262.8,3422.0 L1585.8,3423.9 L1648.1,3419.1 L1707.9,3407.9 L1769.4,3395.2 L1830.1,3392.0 Z" />
    <path id="good_log_stack" fill="transparent" d="M6027.0,6493.0 L6059.0,6510.0 L6084.0,6517.0 L6091.0,6528.0 L6086.0,6557.0 L6090.0,6563.0 L6106.0,6572.0 L6118.0,6575.0 L6156.0,6574.0 L6194.0,6581.0 L6218.0,6572.0 L6235.0,6571.0 L6245.0,6573.0 L6252.0,6579.0 L6252.0,6593.0 L6238.0,6620.0 L6233.0,6652.0 L6221.0,6697.0 L6190.0,6766.0 L6164.0,6812.0 L6160.0,6828.0 L6166.0,6850.0 L6185.0,6873.0 L6198.0,6895.0 L6201.0,6929.0 L6231.0,6988.0 L6232.0,6996.0 L6228.0,7004.0 L6212.0,7011.0 L6192.0,7011.0 L6185.0,7005.0 L6174.0,6962.0 L6171.0,6936.0 L6156.0,6900.0 L6145.0,6886.0 L6129.0,6880.0 L6118.0,6880.0 L6084.0,6891.0 L6050.0,6917.0 L6008.0,6927.0 L5993.0,6935.0 L5984.0,6947.0 L5981.0,6960.0 L5987.0,6986.0 L5986.0,6995.0 L5979.0,7004.0 L5960.0,7014.0 L5951.0,7010.0 L5944.0,6994.0 L5943.0,6937.0 L5939.0,6926.0 L5931.0,6917.0 L5915.0,6910.0 L5885.0,6906.0 L5849.0,6911.0 L5832.0,6920.0 L5822.0,6930.0 L5817.0,6946.0 L5809.0,7001.0 L5796.0,7017.0 L5784.0,7020.0 L5769.0,7013.0 L5758.0,6996.0 L5772.0,6954.0 L5769.0,6936.0 L5761.0,6924.0 L5741.0,6913.0 L5648.0,6881.0 L5626.0,6865.0 L5618.0,6864.0 L5612.0,6875.0 L5608.0,6895.0 L5582.0,6955.0 L5571.0,7004.0 L5562.0,7014.0 L5556.0,7016.0 L5543.0,7014.0 L5530.0,7007.0 L5522.0,6996.0 L5523.0,6990.0 L5540.0,6963.0 L5545.0,6926.0 L5551.0,6907.0 L5581.0,6855.0 L5589.0,6831.0 L5588.0,6821.0 L5516.0,6725.0 L5501.0,6687.0 L5503.0,6653.0 L5499.0,6631.0 L5484.0,6603.0 L5475.0,6568.0 L5460.0,6556.0 L5426.0,6556.0 L5417.0,6530.0 L5419.0,6520.0 L5427.0,6512.0 L5459.0,6500.0 L5482.0,6520.0 L5493.0,6546.0 L5507.0,6556.0 L5521.0,6560.0 L5551.0,6562.0 L5595.0,6573.0 L5628.0,6575.0 L5645.0,6572.0 L5674.0,6561.0 L5672.0,6554.0 L5660.0,6540.0 L5660.0,6520.0 L5684.0,6500.0 L5698.0,6498.0 L5718.0,6505.0 L5723.0,6522.0 L5726.0,6564.0 L5731.0,6577.0 L5747.0,6587.0 L5787.0,6593.0 L5808.0,6582.0 L5826.0,6563.0 L5853.0,6556.0 L5983.0,6570.0 L6001.0,6568.0 L6010.0,6563.0 L6016.0,6554.0 L6019.0,6518.0 L6024.0,6495.0 L6027.0,6493.0 Z" />
    <path id="good_compost" fill="transparent" d="M379.0,5737.0 L390.0,5744.0 L416.0,5777.0 L426.0,5783.0 L445.0,5787.0 L467.0,5780.0 L491.0,5760.0 L545.0,5753.0 L582.0,5738.0 L612.0,5743.0 L630.0,5752.0 L653.0,5769.0 L685.0,5773.0 L724.0,5786.0 L734.0,5795.0 L742.0,5808.0 L754.0,5816.0 L789.0,5819.0 L818.0,5826.0 L835.0,5851.0 L869.0,5876.0 L887.0,5881.0 L931.0,5886.0 L940.0,5894.0 L946.0,5919.0 L944.0,5941.0 L937.0,5965.0 L923.0,5986.0 L926.0,5994.0 L940.0,6011.0 L945.0,6044.0 L941.0,6079.0 L923.0,6119.0 L933.0,6158.0 L928.0,6254.0 L941.0,6274.0 L946.0,6294.0 L944.0,6320.0 L936.0,6333.0 L913.0,6340.0 L874.0,6340.0 L814.0,6346.0 L692.0,6348.0 L615.0,6345.0 L551.0,6337.0 L486.0,6336.0 L430.0,6328.0 L378.0,6309.0 L305.0,6297.0 L284.0,6297.0 L271.0,6301.0 L256.0,6309.0 L233.0,6328.0 L221.0,6333.0 L207.0,6332.0 L198.0,6325.0 L191.0,6297.0 L194.0,6253.0 L182.0,6197.0 L183.0,6148.0 L187.0,6124.0 L182.0,6064.0 L183.0,6022.0 L187.0,6004.0 L194.0,5991.0 L183.0,5945.0 L184.0,5895.0 L188.0,5889.0 L198.0,5884.0 L252.0,5875.0 L273.0,5860.0 L275.0,5849.0 L270.0,5819.0 L270.0,5794.0 L279.0,5774.0 L287.0,5765.0 L313.0,5763.0 L321.0,5767.0 L346.0,5795.0 L355.0,5790.0 L367.0,5755.0 L379.0,5737.0 Z" />
    <path id="good_woodshed" fill="transparent" d="M2085.4,4628.4 L873.3,4821.7 L882.0,4856.8 L934.7,4839.2 L937.7,6347.1 L1786.8,6358.8 L1766.3,6194.9 L1780.9,6162.6 L1824.8,6127.5 L1862.9,6109.9 L2082.5,6092.4 Z" />
    <path id="good_brush" fill="transparent" d="M3676.0,6120.0 L3691.0,6123.0 L3718.0,6146.0 L3754.0,6153.0 L3799.0,6193.0 L3809.0,6218.0 L3812.0,6241.0 L3811.0,6286.0 L3801.0,6339.0 L3794.0,6354.0 L3774.0,6374.0 L3755.0,6403.0 L3737.0,6419.0 L3691.0,6433.0 L3649.0,6438.0 L3639.0,6444.0 L3610.0,6473.0 L3596.0,6507.0 L3583.0,6563.0 L3565.0,6611.0 L3544.0,6692.0 L3512.0,6781.0 L3512.0,6820.0 L3482.0,6866.0 L3469.0,6871.0 L3449.0,6887.0 L3424.0,6890.0 L3421.0,6887.0 L3421.0,6855.0 L3441.0,6760.0 L3457.0,6728.0 L3480.0,6714.0 L3489.0,6699.0 L3523.0,6592.0 L3547.0,6525.0 L3559.0,6503.0 L3564.0,6482.0 L3571.0,6430.0 L3569.0,6422.0 L3549.0,6399.0 L3519.0,6351.0 L3511.0,6283.0 L3523.0,6230.0 L3549.0,6175.0 L3583.0,6145.0 L3626.0,6128.0 L3676.0,6120.0 Z" />
    <path id="good_bike" fill="transparent" d="M7740.5,6520.0 L7834.7,6668.8 L7816.6,6696.9 L7795.1,6779.6 L7791.8,6892.0 L7821.5,7030.9 L7886.0,7158.2 L7970.3,7239.2 L8026.5,7275.5 L8109.2,7280.5 L8186.9,7244.1 L8251.4,7149.9 L8274.5,7012.7 L8264.6,6867.2 L8200.1,6711.8 L8122.4,6615.9 L8036.4,6566.3 L7963.7,6561.3 L7905.8,6579.5 L7869.5,6609.3 L7849.6,6634.1 L7738.8,6455.5 L7737.2,6402.6 L7771.9,6399.3 L7808.3,6394.4 L7839.7,6371.2 L7856.2,6341.4 L7856.2,6334.8 L7803.3,6338.1 L7659.5,6316.6 L7623.1,6316.6 L7611.5,6336.5 L7618.2,6356.3 L7652.9,6364.6 L7672.7,6362.9 L7692.6,6381.1 L7709.1,6401.0 L7710.7,6440.6 L7299.1,6336.5 L7295.8,6290.2 L7352.0,6280.3 L7409.8,6268.7 L7474.3,6268.7 L7476.0,6255.5 L7464.4,6242.3 L7395.0,6237.3 L7269.3,6258.8 L7272.6,7090.4 L7312.3,7090.4 L7356.9,7065.6 L7395.0,7029.2 L7429.7,6966.4 L7447.9,6854.0 L7442.9,6749.8 L7401.6,6617.5 L7332.1,6521.7 L7282.5,6493.5 L7297.4,6381.1 L7677.7,6918.4 L7666.1,6948.2 L7667.8,6992.8 L7669.4,7007.7 L7570.2,6996.1 L7566.9,7011.0 L7571.9,7024.3 L7682.6,7040.8 L7710.7,7068.9 L7752.1,7078.8 L7781.8,7060.6 L7800.0,7011.0 L7788.4,6941.6 L7755.4,6903.6 Z" />
    <path id="good_heatpump" fill="transparent" d="M2687.0,4343.0 L2792.0,4346.0 L3729.0,4345.0 L3769.0,4351.0 L3790.0,4360.0 L3815.0,4384.0 L3831.0,4419.0 L3835.0,4446.0 L3835.0,4593.0 L3831.0,4647.0 L3825.0,4670.0 L3804.0,4723.0 L3801.0,4751.0 L3791.0,4764.0 L3767.0,4769.0 L3601.0,4760.0 L3062.0,4762.0 L2804.0,4759.0 L2671.0,4761.0 L2591.0,4766.0 L2555.0,4764.0 L2526.0,4769.0 L2514.0,4768.0 L2505.0,4763.0 L2498.0,4752.0 L2500.0,4685.0 L2496.0,4661.0 L2495.0,4535.0 L2496.0,4419.0 L2500.0,4405.0 L2509.0,4391.0 L2533.0,4376.0 L2556.0,4355.0 L2585.0,4349.0 L2648.0,4354.0 L2687.0,4343.0 Z" />
</svg>