<svg viewBox="0 0 960 960" xmlns="http://www.w3.org/2000/svg">
    <!-- Background anchor for add_svg_background_image -->
    <rect id="background" x="0" y="0" width="960" height="960" fill="transparent" pointer-events="none" />

    <path id="Good_fireplace" fill="transparent" d="M498.0,755.0 L523.0,757.0 L551.0,764.0 L571.0,773.0 L586.0,784.0 L585.0,907.0 L415.0,905.0 L414.0,785.0 L444.0,766.0 L468.0,759.0 L498.0,755.0 Z" />
    <path id="split_wood" fill="transparent" d="M920.0,808.0 L951.0,808.0 L953.0,838.0 L959.0,843.0 L959.0,905.0 L943.0,912.0 L902.0,940.0 L887.0,947.0 L815.0,925.0 L800.0,913.0 L795.0,891.0 L808.0,882.0 L808.0,863.0 L811.0,854.0 L817.0,848.0 L817.0,822.0 L920.0,808.0 Z" />
    <path id="good_transport" fill="transparent" d="M640.0,202.0 L920.0,204.0 L919.0,601.0 L702.0,603.0 L641.0,602.0 L637.0,599.0 L636.0,332.0 L637.0,206.0 L640.0,202.0 Z" />
    <path id="outside_wood" fill="transparent" d="M290.0,204.0 L292.0,214.0 L296.0,216.0 L301.0,215.0 L302.0,210.0 L308.0,215.0 L348.0,217.0 L351.0,353.0 L351.0,418.0 L347.0,480.0 L350.0,542.0 L348.0,587.0 L95.0,587.0 L93.0,323.0 L271.0,320.0 L276.0,316.0 L274.0,313.0 L277.0,309.0 L287.0,304.0 L289.0,297.0 L290.0,204.0 Z" />
    <path id="heatpump" fill="transparent" d="M240.0,169.0 L266.0,170.0 L265.0,174.0 L272.0,174.0 L285.0,192.0 L283.0,223.0 L286.0,227.0 L286.0,299.0 L280.0,310.0 L271.0,317.0 L255.0,319.0 L185.0,314.0 L88.0,317.0 L0.0,315.0 L0.0,170.0 L192.0,172.0 L240.0,169.0 Z" />
</svg>