<svg viewBox="0 0 610 889" xmlns="http://www.w3.org/2000/svg">
    <!-- Background anchor for add_svg_background_image -->
    <rect id="background" x="0" y="0" width="610" height="889" fill="transparent" pointer-events="none" />

    <path id="Kai_Iwi" fill="transparent" d="M140.0,461.0 L144.0,461.0 L145.0,465.0 L155.0,472.0 L169.0,498.0 L166.0,505.0 L159.0,507.0 L160.0,516.0 L152.0,515.0 L149.0,522.0 L141.0,519.0 L130.0,521.0 L101.0,511.0 L107.0,506.0 L109.0,498.0 L115.0,498.0 L130.0,481.0 L136.0,481.0 L137.0,464.0 L140.0,461.0 Z" />
    <path id="Whanganui" fill="transparent" d="M263.0,103.0 L292.0,106.0 L298.0,124.0 L297.0,135.0 L284.0,152.0 L284.0,163.0 L271.0,185.0 L276.0,191.0 L276.0,196.0 L281.0,196.0 L285.0,204.0 L277.0,215.0 L284.0,229.0 L279.0,242.0 L281.0,254.0 L291.0,254.0 L296.0,250.0 L300.0,253.0 L309.0,252.0 L300.0,261.0 L300.0,268.0 L293.0,279.0 L300.0,288.0 L300.0,301.0 L285.0,328.0 L286.0,334.0 L280.0,339.0 L280.0,344.0 L263.0,349.0 L257.0,347.0 L239.0,354.0 L226.0,365.0 L218.0,367.0 L212.0,376.0 L202.0,369.0 L194.0,373.0 L194.0,390.0 L198.0,396.0 L195.0,400.0 L193.0,419.0 L216.0,452.0 L212.0,455.0 L203.0,453.0 L199.0,458.0 L200.0,467.0 L210.0,477.0 L209.0,487.0 L204.0,492.0 L213.0,519.0 L208.0,527.0 L209.0,541.0 L194.0,551.0 L186.0,549.0 L177.0,552.0 L174.0,564.0 L162.0,548.0 L135.0,524.0 L140.0,522.0 L150.0,526.0 L153.0,519.0 L162.0,519.0 L163.0,509.0 L173.0,500.0 L171.0,492.0 L164.0,486.0 L165.0,480.0 L159.0,477.0 L156.0,468.0 L148.0,461.0 L152.0,455.0 L147.0,450.0 L148.0,427.0 L152.0,418.0 L147.0,413.0 L147.0,402.0 L137.0,398.0 L128.0,387.0 L125.0,376.0 L128.0,372.0 L128.0,362.0 L113.0,356.0 L111.0,348.0 L103.0,341.0 L98.0,343.0 L98.0,331.0 L91.0,326.0 L92.0,321.0 L86.0,318.0 L86.0,302.0 L80.0,294.0 L89.0,291.0 L93.0,282.0 L96.0,283.0 L106.0,277.0 L100.0,255.0 L106.0,251.0 L105.0,234.0 L113.0,236.0 L115.0,233.0 L114.0,225.0 L108.0,217.0 L107.0,204.0 L111.0,202.0 L112.0,196.0 L120.0,194.0 L123.0,188.0 L140.0,183.0 L139.0,177.0 L146.0,167.0 L145.0,159.0 L154.0,159.0 L179.0,146.0 L204.0,150.0 L218.0,137.0 L223.0,138.0 L227.0,125.0 L240.0,127.0 L250.0,116.0 L250.0,112.0 L263.0,103.0 Z" />
    <path id="Puketoi_ki_Tai" fill="transparent" d="M470.0,650.0 L474.0,656.0 L468.0,662.0 L471.0,668.0 L482.0,674.0 L486.0,680.0 L496.0,681.0 L499.0,678.0 L506.0,682.0 L517.0,681.0 L526.0,673.0 L526.0,669.0 L529.0,669.0 L526.0,671.0 L527.0,678.0 L524.0,683.0 L527.0,691.0 L525.0,701.0 L513.0,702.0 L497.0,712.0 L489.0,727.0 L478.0,737.0 L468.0,755.0 L459.0,763.0 L450.0,763.0 L447.0,758.0 L437.0,757.0 L432.0,752.0 L429.0,756.0 L423.0,754.0 L420.0,758.0 L414.0,759.0 L406.0,756.0 L409.0,743.0 L394.0,725.0 L400.0,724.0 L401.0,720.0 L398.0,717.0 L405.0,709.0 L418.0,681.0 L433.0,668.0 L439.0,656.0 L447.0,654.0 L461.0,657.0 L463.0,651.0 L467.0,653.0 L470.0,650.0 Z" />
    <path id="Manawatū" fill="transparent" d="M349.0,517.0 L356.0,517.0 L360.0,524.0 L367.0,523.0 L372.0,526.0 L378.0,523.0 L385.0,529.0 L395.0,528.0 L399.0,521.0 L405.0,521.0 L410.0,525.0 L406.0,531.0 L410.0,543.0 L405.0,549.0 L404.0,556.0 L412.0,562.0 L430.0,562.0 L442.0,571.0 L443.0,576.0 L453.0,578.0 L456.0,586.0 L462.0,586.0 L461.0,591.0 L467.0,593.0 L463.0,601.0 L468.0,604.0 L466.0,608.0 L471.0,618.0 L468.0,637.0 L473.0,642.0 L472.0,647.0 L462.0,647.0 L459.0,654.0 L449.0,651.0 L437.0,653.0 L435.0,659.0 L430.0,661.0 L430.0,666.0 L415.0,680.0 L394.0,718.0 L397.0,722.0 L389.0,723.0 L405.0,744.0 L401.0,759.0 L402.0,768.0 L391.0,769.0 L387.0,766.0 L378.0,775.0 L371.0,776.0 L367.0,783.0 L364.0,781.0 L356.0,787.0 L350.0,783.0 L332.0,787.0 L330.0,784.0 L334.0,779.0 L334.0,767.0 L330.0,765.0 L327.0,768.0 L325.0,763.0 L314.0,763.0 L308.0,772.0 L304.0,772.0 L302.0,777.0 L296.0,780.0 L265.0,763.0 L255.0,771.0 L253.0,777.0 L250.0,777.0 L248.0,773.0 L256.0,747.0 L254.0,740.0 L247.0,734.0 L238.0,738.0 L232.0,748.0 L223.0,740.0 L223.0,732.0 L214.0,725.0 L215.0,722.0 L210.0,717.0 L212.0,708.0 L203.0,704.0 L205.0,682.0 L216.0,682.0 L230.0,688.0 L238.0,683.0 L238.0,676.0 L231.0,671.0 L235.0,673.0 L242.0,667.0 L233.0,658.0 L238.0,655.0 L236.0,648.0 L244.0,646.0 L236.0,639.0 L243.0,639.0 L249.0,644.0 L261.0,642.0 L264.0,634.0 L268.0,632.0 L265.0,611.0 L262.0,609.0 L263.0,602.0 L269.0,603.0 L274.0,599.0 L288.0,602.0 L290.0,590.0 L299.0,583.0 L303.0,574.0 L317.0,563.0 L319.0,556.0 L329.0,548.0 L335.0,532.0 L344.0,528.0 L349.0,517.0 Z" />
    <path id="Rangitīkei-Turakina" fill="transparent" d="M389.0,284.0 L401.0,296.0 L401.0,303.0 L405.0,308.0 L401.0,312.0 L399.0,322.0 L408.0,324.0 L400.0,336.0 L405.0,352.0 L409.0,355.0 L404.0,361.0 L394.0,365.0 L391.0,371.0 L399.0,376.0 L403.0,373.0 L408.0,374.0 L409.0,387.0 L414.0,391.0 L413.0,400.0 L420.0,408.0 L426.0,409.0 L424.0,418.0 L414.0,430.0 L416.0,435.0 L423.0,439.0 L420.0,452.0 L427.0,458.0 L420.0,472.0 L422.0,483.0 L413.0,503.0 L412.0,515.0 L409.0,520.0 L405.0,517.0 L397.0,518.0 L395.0,524.0 L385.0,525.0 L380.0,519.0 L371.0,522.0 L367.0,519.0 L360.0,520.0 L361.0,517.0 L357.0,514.0 L347.0,514.0 L341.0,526.0 L331.0,532.0 L329.0,541.0 L315.0,556.0 L314.0,562.0 L303.0,569.0 L297.0,580.0 L288.0,587.0 L286.0,598.0 L275.0,595.0 L260.0,600.0 L259.0,610.0 L264.0,631.0 L260.0,633.0 L258.0,639.0 L250.0,641.0 L242.0,635.0 L232.0,638.0 L235.0,644.0 L232.0,651.0 L235.0,654.0 L232.0,654.0 L230.0,659.0 L234.0,666.0 L226.0,672.0 L230.0,675.0 L231.0,684.0 L215.0,678.0 L206.0,679.0 L206.0,644.0 L201.0,612.0 L184.0,574.0 L190.0,567.0 L200.0,568.0 L204.0,559.0 L213.0,557.0 L227.0,539.0 L228.0,531.0 L260.0,506.0 L259.0,493.0 L266.0,485.0 L265.0,478.0 L273.0,462.0 L272.0,454.0 L278.0,449.0 L284.0,434.0 L285.0,416.0 L293.0,410.0 L303.0,409.0 L310.0,397.0 L323.0,390.0 L323.0,374.0 L319.0,373.0 L320.0,347.0 L327.0,345.0 L341.0,348.0 L352.0,338.0 L352.0,330.0 L360.0,324.0 L359.0,319.0 L376.0,311.0 L381.0,294.0 L389.0,284.0 Z" />
    <path id="Waiopehu" fill="transparent" d="M202.0,707.0 L208.0,709.0 L207.0,719.0 L211.0,722.0 L208.0,726.0 L220.0,733.0 L220.0,741.0 L231.0,752.0 L239.0,741.0 L250.0,739.0 L252.0,749.0 L245.0,774.0 L235.0,772.0 L232.0,778.0 L221.0,779.0 L215.0,784.0 L207.0,780.0 L200.0,782.0 L200.0,773.0 L186.0,764.0 L191.0,755.0 L202.0,707.0 Z" />
    <path id="Whangaehu" fill="transparent" d="M284.0,340.0 L302.0,341.0 L317.0,347.0 L315.0,372.0 L319.0,376.0 L319.0,389.0 L309.0,394.0 L301.0,406.0 L292.0,407.0 L282.0,414.0 L280.0,433.0 L274.0,449.0 L269.0,452.0 L268.0,468.0 L255.0,495.0 L257.0,505.0 L252.0,510.0 L245.0,511.0 L225.0,530.0 L223.0,538.0 L211.0,554.0 L203.0,556.0 L197.0,565.0 L188.0,564.0 L181.0,572.0 L177.0,568.0 L179.0,555.0 L187.0,552.0 L195.0,554.0 L211.0,544.0 L211.0,529.0 L215.0,526.0 L213.0,522.0 L217.0,520.0 L208.0,492.0 L213.0,487.0 L214.0,477.0 L204.0,467.0 L202.0,459.0 L206.0,456.0 L214.0,458.0 L219.0,451.0 L196.0,418.0 L199.0,400.0 L202.0,397.0 L198.0,390.0 L200.0,384.0 L197.0,374.0 L202.0,373.0 L208.0,379.0 L214.0,379.0 L219.0,370.0 L228.0,368.0 L240.0,357.0 L257.0,351.0 L278.0,349.0 L284.0,344.0 L284.0,340.0 Z" />
</svg>